<svg xmlns="http://www.w3.org/2000/svg" viewBox="0 0 101.18 111.55"><g id="Layer_2" data-name="Layer 2"><g id="Layer_1-2" data-name="Layer 1"><path d="M0,111.27V0H100.91c0,.59,0,1.18,0,1.76V109.44c0,1.83,0,1.83-1.82,1.83ZM34.39,61.91c-.76.38-.86.66-.38.83a40.19,40.19,0,0,0,4.59,1.33,1.21,1.21,0,0,0,1-.57,21.25,21.25,0,0,0,1-2.71c.71-2.27.76-4.82,2.85-6.5a2.5,2.5,0,0,0,.52-1.24,10.27,10.27,0,0,0,.19-1.37l.35.38c.74-.21,1.76-.19,2.18-.69a4.29,4.29,0,0,0,.47-4.21c.27-.61.49-1.18.77-1.72.14-.29.36-.68.61-.73,1.72-.35,1.71-1.85,2.07-3.07.1-.34-.18-.83-.35-1.23s-.48-1-.7-1.45S49.32,38,49,37.8c-.63-.5-.44-.95-.17-1.51A7.93,7.93,0,0,0,50,32a4.76,4.76,0,0,1,.07-1.81c.88-2.66,1.84-5.29,2.76-7.94.36-1,.74-2-.35-2.9a.57.57,0,0,1-.19-.49c.48-1.33-.49-2.85.73-4.17a2.57,2.57,0,0,0-.12-2.44c-.68-.94-1.75-.45-2.68,0-1.31.65-.9,1.76-.77,2.66l-1,.55,0,0A11.79,11.79,0,0,0,46.17,18c-1.3,2.68-2.33,5.49-3.49,8.23-.26.61-.56,1.58-1,1.67-1.15.25-1.29,1.19-1.66,1.93a12.62,12.62,0,0,0-1.24,3.38,1.76,1.76,0,0,1-2.13,1.48c-1.49-.54-2.21.21-2.89,1.16-1.06,1.49-1.25,2.92.69,3.91a4,4,0,0,1,.48.34l-.78,2-.91-.17c-1.21,1.85-1.8,3.62-.94,5.82.38,1-.24,2.39-.5,3.58a22.51,22.51,0,0,1-1.42,5.42c-.7,1.39-.14,1.57.8,2.12,1.28.76,3.14,1,3.2,3.05ZM19,73.08c.19.56.38,1,.51,1.48.27,1,.8,1.59,1.86,1.32a1.7,1.7,0,0,0,1.46-2,53.7,53.7,0,0,0-1.7-5.68,1.15,1.15,0,0,0-1.87-.59c-.86.5-1.76.94-2.6,1.48-4.35,2.84-7.89,6.4-9.4,11.52C5.93,85,8,88.42,12.5,89.28a16.15,16.15,0,0,0,14.84-4.47c.69-.66.87-1.85,1.28-2.79.12-.42.64-.76.7-1.17a2.51,2.51,0,0,0-2.22-2.47q-5.61.45-11.18,1.14c-.37,0-.92.85-.92,1.31,0,1.56,1.11,2.26,2.62,1.93,2.33-.5,4.69-.89,7.05-1.34l.12.54c-3.4,2.78-7.07,4.92-11.73,4.55-2.31-.18-3.67-1.81-3-3.85A15.25,15.25,0,0,1,19,73.08Zm59.39,9.85c2.32-1.86,4.68-3.61,6.88-5.55a14.5,14.5,0,0,0,3-3.56,2.91,2.91,0,0,0-1.54-4.29,11.64,11.64,0,0,0-3.63-.94c-4.37-.41-8.5.78-12.6,2.11-1.18.39-1.37,1.07-.84,2.07.24.43.64.77.86,1.2a4.71,4.71,0,0,1,.69,1.75c.14,4,.19,8,.32,12a2.54,2.54,0,0,0,.55,1.6,2.06,2.06,0,0,0,1.59.68c.39-.11.74-.93.82-1.48a24.59,24.59,0,0,0,0-3.12,10.84,10.84,0,0,1,1.47.26c2.84,1,5.67,2.08,8.52,3.07a6.68,6.68,0,0,0,1.63.17,11.32,11.32,0,0,0-.53-1.94c-.14-.32-.6-.53-1-.72C82.63,85.12,80.58,84.07,78.37,82.93ZM47.76,78.82c-.25-1.92-.42-3.86-.76-5.77a4.78,4.78,0,0,0-5.77-4.16,7,7,0,0,0-3.56,1.74A51.84,51.84,0,0,0,32,77.47c-2,2.87-1.64,6.16.74,8.28a17,17,0,0,0,5,3.11,6.81,6.81,0,0,0,8.59-3.46A14.6,14.6,0,0,0,47.76,78.82ZM67,59.06c.42.4.67.84,1,.9.84.15,1.71.06,2.55.19,5.11.76,10.22,1.56,15.33,2.32a11.54,11.54,0,0,0,2.69.07c.34,0,.64-.48,1.11-.86a17.23,17.23,0,0,0-1.56-2.27,19.84,19.84,0,0,1-4.1-6.8,50.38,50.38,0,0,0-3.18-7c-1.35-2.51-2.55-5-2.19-7.94a2.24,2.24,0,0,0,0-.93c-.17-.59-.42-1.16-.64-1.73l-.55-.17c-3.9,6-9.63,10.13-14.6,15,.65,1.36.42,2.05-.81,2.7-.45.24-1.2.42-1.27.75-.26,1.22-.76,1-1.43.31l-.76,1.17c-1.33-1.54-.88.65-1.5.5-2.76.58-5.52,1.14-8.49-.34a4.23,4.23,0,0,0-.08,1.64c.92,2.39,1.88,4.76,3,7.07.26.56,1,.9,1.53,1.33l.39-.36-3-8c1.48.08,3.07-.18,4.36.33,1.59.62,2.57-.46,3.71-.83,1.6-.52,3-1.69,4.5-2.48a1.44,1.44,0,0,1,1.33.19A35,35,0,0,1,65.88,57c-3.31,1.39-6.45,2.52-9.38,4.05-1.14.6-1.8,2.1-2.64,3.22-.1.14.06.48.1.72l.41.18c.54-.92,1.05-1.86,1.63-2.76a2.84,2.84,0,0,1,1-1.07c2.25-1,4.54-1.89,6.8-2.84.69-.29,1.36-.62,2.09-1l.69,1.77Zm-5.4,13.53,5.07-.77c1.58-.25,1.91-1.07.93-2.33a3,3,0,0,0-3.25-1.14c-1.86.38-3.75.63-5.6,1.06-2.51.57-5,1.19-7.48,1.91-1.65.49-1.85,1.62-.61,2.83a2.37,2.37,0,0,0,2.62.54c1.49-.52,3-.92,4.47-1.35,0,3.84,0,7.42,0,11a28.3,28.3,0,0,0,.23,3.8,1.8,1.8,0,0,0,1.84,1.68c1.1,0,1-1,1.08-1.73a10.69,10.69,0,0,0,0-1.5C61.14,82,61.35,77.36,61.57,72.59ZM33.16,61.17l-.48-.28a31.57,31.57,0,0,1-2.51,2.88,3,3,0,0,0-.85,3.53,1.83,1.83,0,0,1-.13,1.28c-.6,1.1-1.35,2.12-1.94,3.22a16,16,0,0,0-.78,2.3c.57-.19.85-.2,1-.35,1.67-1.82,3.31-3.65,4.93-5.51.09-.1-.1-.43-.15-.65-.28-1.32-.88-2.6.1-4A8.41,8.41,0,0,0,33.16,61.17Z"/><path d="M0,111.27H99.08c1.82,0,1.82,0,1.82-1.83V1.76c0-.58,0-1.17,0-1.76a4.8,4.8,0,0,1,.26,1.09q0,22,0,44.07v66.39q-50,0-100,0A6,6,0,0,1,0,111.27Z" style="fill:#fff"/><path d="M19,73.08a15.25,15.25,0,0,0-8.88,9.58c-.71,2,.65,3.67,3,3.85,4.66.37,8.33-1.77,11.73-4.55l-.12-.54c-2.36.45-4.72.84-7,1.34-1.51.33-2.63-.37-2.62-1.93,0-.46.55-1.27.92-1.31q5.58-.69,11.18-1.14a2.51,2.51,0,0,1,2.22,2.47c-.06.41-.58.75-.7,1.17-.41.94-.59,2.13-1.28,2.79A16.15,16.15,0,0,1,12.5,89.28C8,88.42,5.93,85,7.24,80.62c1.51-5.12,5-8.68,9.4-11.52.84-.54,1.74-1,2.6-1.48a1.15,1.15,0,0,1,1.87.59,53.7,53.7,0,0,1,1.7,5.68,1.7,1.7,0,0,1-1.46,2c-1.06.27-1.59-.37-1.86-1.32C19.36,74.09,19.17,73.64,19,73.08Z" style="fill:#fff"/><path d="M78.37,82.93c2.21,1.14,4.26,2.19,6.29,3.26.36.19.82.4,1,.72a11.32,11.32,0,0,1,.53,1.94,6.68,6.68,0,0,1-1.63-.17c-2.85-1-5.68-2.05-8.52-3.07a10.84,10.84,0,0,0-1.47-.26,24.59,24.59,0,0,1,0,3.12c-.08.55-.43,1.37-.82,1.48a2.06,2.06,0,0,1-1.59-.68,2.54,2.54,0,0,1-.55-1.6c-.13-4-.18-8-.32-12A4.71,4.71,0,0,0,70.53,74c-.22-.43-.62-.77-.86-1.2-.53-1-.34-1.68.84-2.07,4.1-1.33,8.23-2.52,12.6-2.11a11.64,11.64,0,0,1,3.63.94,2.91,2.91,0,0,1,1.54,4.29,14.5,14.5,0,0,1-3,3.56C83.05,79.32,80.69,81.07,78.37,82.93Zm-3.68-2.48c.75-.39,1.33-.61,1.84-1,2.43-1.64,4.88-3.25,7.24-5,.55-.41.75-1.3,1.12-2-.73-.33-1.53-1-2.17-.93-2.51.46-5,1.17-7.45,1.83a1,1,0,0,0-.56.75C74.66,76.17,74.69,78.16,74.69,80.45Z" style="fill:#fff"/><path d="M47.76,78.82a14.6,14.6,0,0,1-1.47,6.58,6.81,6.81,0,0,1-8.59,3.46,17,17,0,0,1-5-3.11c-2.38-2.12-2.7-5.41-.74-8.28a51.84,51.84,0,0,1,5.72-6.84,7,7,0,0,1,3.56-1.74A4.78,4.78,0,0,1,47,73.05C47.34,75,47.51,76.9,47.76,78.82Zm-3.21,1a44.91,44.91,0,0,0-.78-4.56c-.78-2.68-3.25-3.32-5.19-1.29A21.26,21.26,0,0,0,35.49,78a5.13,5.13,0,0,0,3.38,7.66,3.51,3.51,0,0,0,4.37-1.79A26.61,26.61,0,0,0,44.55,79.77Z" style="fill:#fff"/><path d="M48.45,15.47l1-.55c-.13-.9-.54-2,.77-2.66.93-.47,2-1,2.68,0a2.57,2.57,0,0,1,.12,2.44c-1.22,1.32-.25,2.84-.73,4.17a.57.57,0,0,0,.19.49c1.09.86.71,1.88.35,2.9-.92,2.65-1.88,5.28-2.76,7.94A4.76,4.76,0,0,0,50,32a7.93,7.93,0,0,1-1.17,4.3c-.27.56-.46,1,.17,1.51.29.23.31.77.49,1.16s.5.95.7,1.45.45.89.35,1.23c-.36,1.22-.35,2.72-2.07,3.07-.25,0-.47.44-.61.73-.28.54-.5,1.11-.77,1.72a4.29,4.29,0,0,1-.47,4.21c-.42.5-1.44.48-2.18.69l-.35-.38a10.27,10.27,0,0,1-.19,1.37,2.5,2.5,0,0,1-.52,1.24c-2.09,1.68-2.14,4.23-2.85,6.5a21.25,21.25,0,0,1-1,2.71,1.21,1.21,0,0,1-1,.57A40.19,40.19,0,0,1,34,62.74c-.48-.17-.38-.45.38-.83l1.51.5c.84.28,1.53.21,1.88-.72a2.57,2.57,0,0,0-3.4.23c-.06-2.06-1.92-2.29-3.2-3.05-.94-.55-1.5-.73-.8-2.12a22.51,22.51,0,0,0,1.42-5.42c.26-1.19.88-2.6.5-3.58-.86-2.2-.27-4,.94-5.82l.91.17.78-2a4,4,0,0,0-.48-.34c-1.94-1-1.75-2.42-.69-3.91.68-1,1.4-1.7,2.89-1.16a1.76,1.76,0,0,0,2.13-1.48A12.62,12.62,0,0,1,40,29.82c.37-.74.51-1.68,1.66-1.93.44-.09.74-1.06,1-1.67,1.16-2.74,2.19-5.55,3.49-8.23a11.79,11.79,0,0,1,2.32-2.55c-.13.5-.25,1-.38,1.57,1,.57,1.91,1.2,2.94,1.68.22.1.78-.31,1-.61a.94.94,0,0,0-.25-.86C50.74,16.59,49.59,16.05,48.45,15.47Zm-8.2,43.86-8.9-4.66-.09.81-.47,2.86,7.64,3.14c-.26.43-.43,1.05-.82,1.27a4.68,4.68,0,0,1-1.74.17c.42.21.73.37,1.05.51,1.29.59,2.36.25,2.79-1.08a1.64,1.64,0,0,0-1.15-2.28,20.72,20.72,0,0,1-7.33-4.62c.43.21.88.39,1.29.63l7.69,4.6V59.3L41,57.85a28.86,28.86,0,0,1-9.32-4.5,3.5,3.5,0,0,0,1.93,2.09c2,1,4,2,6,3C39.85,58.64,40,59,40.25,59.33Zm7.1-11.25a2.92,2.92,0,0,0-.5-.41c-4.19-1.73-8.38-3.46-12.6-5.14a1.14,1.14,0,0,0-1,.37,6.69,6.69,0,0,0-1,2.17,1.61,1.61,0,0,0,.58,1.39c3,1.58,6.11,3,9.13,4.6a6.22,6.22,0,0,0,4.16.19c.44-.07.66-1.51,1-2.32C47.14,48.68,47.22,48.43,47.35,48.08Zm.55-11c1.32-2.08,1.81-3.53,1.52-5.15a1.77,1.77,0,0,0-1-1.1c-1.51-.64-3.11-1.06-4.6-1.73-1.9-.87-2.73-.68-3.55,1.19-.42,1-.78,2-1.18,3ZM39,36.12a19.89,19.89,0,0,0-.84,2.45c-.21,1.06-.09,2.06,1.17,2.51,1.71.61,3.41,1.27,5.21,2L46,39.17Zm8.43,8.76c-2.72-1.11-5.33-2.18-8-3.23-1-.41-2.13-.71-3.13-1.19s-1.13.18-1.4.82c-.38.88.19,1.11.82,1.35,3.12,1.19,6.25,2.35,9.35,3.6C46.77,46.91,47.21,46.72,47.39,44.88ZM37.54,35l12,4.75c-.45-.72-.66-1.47-1.16-1.79a20.52,20.52,0,0,0-3.71-1.88C42.39,35.21,40.18,33.78,37.54,35Zm-.1,5.18c.17-1,.25-1.61.42-2.24.39-1.45,0-2.23-1.49-2.55-.39-.09-.79-.15-1.21-.22A8.81,8.81,0,0,0,33.88,37c-.31.78-.46,1.77.58,2.21A30,30,0,0,0,37.44,40.17Zm8.77-.81c-.27,1.33-1.08,2.86-.62,3.71.58,1.09,2.27,1.27,3.71.91l1-2.47Zm5.28-14.43L44.42,22.6,43.59,24a46.73,46.73,0,0,0,4.87,2C50.18,26.54,51,26.05,51.49,24.93Zm-7.76-.52c-.67,1.48-.74,1.72.53,2.26A30.32,30.32,0,0,0,49.1,28c1.19.28,1.89-.21,1.94-1.66C48.31,27,46,25.74,43.73,24.41Zm-.91,2.49c-.38.43-.19.91.59,1.41a11.66,11.66,0,0,0,6,2.06L50,28.71Zm2.8-6.7c-1,1.5-1.08,1.56.44,2.36a15.14,15.14,0,0,0,3.33,1.33c2,.48,2.44.18,3-1.58C49.87,22.43,47.47,22.3,45.62,20.2Zm7,1-6.3-2.43c-1.05,1-.06,1.64.72,2.17C49,22.21,52,22.26,52.65,21.16ZM49.8,14.58c-.29,1,.28,1.6,1.33,1.76.66.09,1.86-1.78,1.89-2.83s-.49-1.29-1.36-1.26C50.34,12.29,49.79,12.94,49.8,14.58ZM42.41,54.06,32.8,50.54l-.19.46,9.17,4.45Zm1-1.36.17-.31L33,47.13C33.52,48.92,36,50.24,43.38,52.7ZM32.67,49.22l0,.69,10.45,4,.25-.28c-.25-.26-.45-.67-.74-.76a31.55,31.55,0,0,1-8.71-3.74C33.62,48.93,33.08,49.17,32.67,49.22Zm-.38,2.19-.23.35,2.59,1.57c1.65,1,3.28,2.06,5,3,.69.4,1.58.92,1.91-.31Zm14.64-33.5a7.28,7.28,0,0,0,5.63,2.32C51.8,19.18,48.08,17.6,46.93,17.91ZM38.06,56.37l.17-.29L32.1,52.37l-.29.51Z" style="fill:#fff"/><path d="M67,59.06l-.34.26-.69-1.77c-.73.34-1.4.67-2.09,1-2.26,1-4.55,1.85-6.8,2.84a2.84,2.84,0,0,0-1,1.07c-.58.9-1.09,1.84-1.63,2.76L54,65c0-.24-.2-.58-.1-.72.84-1.12,1.5-2.62,2.64-3.22,2.93-1.53,6.07-2.66,9.38-4.05a35,35,0,0,0-1.62-3.25,1.44,1.44,0,0,0-1.33-.19c-1.52.79-2.9,2-4.5,2.48-1.14.37-2.12,1.45-3.71.83-1.29-.51-2.88-.25-4.36-.33l3,8L53,65c-.52-.43-1.27-.77-1.53-1.33-1.08-2.31-2-4.68-3-7.07a4.23,4.23,0,0,1,.08-1.64c3,1.48,5.73.92,8.49.34.62.15.17-2,1.5-.5l.76-1.17c.67.65,1.17.91,1.43-.31.07-.33.82-.51,1.27-.75,1.23-.65,1.46-1.34.81-2.7,5-4.84,10.7-9,14.6-15L78,35c.22.57.47,1.14.64,1.73a2.24,2.24,0,0,1,0,.93c-.36,3,.84,5.43,2.19,7.94a50.38,50.38,0,0,1,3.18,7,19.84,19.84,0,0,0,4.1,6.8,17.23,17.23,0,0,1,1.56,2.27c-.47.38-.77.83-1.11.86a11.54,11.54,0,0,1-2.69-.07c-5.11-.76-10.22-1.56-15.33-2.32-.84-.13-1.71,0-2.55-.19C67.64,59.9,67.39,59.46,67,59.06Zm.88-.32c3.15.43,6.63.92,10.1,1.38l10.61,1.36a28.19,28.19,0,0,1-3.28-3.91c-1.67-3-3.17-6.11-4.62-9.23C79.1,45,77.27,41.68,77.6,37.65c-1.5,1.23-2.78,2.54-4.1,3.8a8,8,0,0,1-1.29.83c.29.87-.59,1.79-2.11,1.68l.58.62c-1.87,2-3.65,4.11-5.64,6a1.42,1.42,0,0,0-.33,2.13C65.77,54.63,66.74,56.59,67.85,58.74Z" style="fill:#fff"/><path d="M61.57,72.59c-.22,4.77-.43,9.38-.64,14a10.69,10.69,0,0,1,0,1.5c-.12.71,0,1.71-1.08,1.73A1.8,1.8,0,0,1,58,88.13a28.3,28.3,0,0,1-.23-3.8c0-3.57,0-7.15,0-11-1.44.43-3,.83-4.47,1.35a2.37,2.37,0,0,1-2.62-.54c-1.24-1.21-1-2.34.61-2.83,2.47-.72,5-1.34,7.48-1.91,1.85-.43,3.74-.68,5.6-1.06a3,3,0,0,1,3.25,1.14c1,1.26.65,2.08-.93,2.33Z" style="fill:#fff"/><path d="M33.16,61.17a8.41,8.41,0,0,1-.84,2.46c-1,1.36-.38,2.64-.1,4,.05.22.24.55.15.65-1.62,1.86-3.26,3.69-4.93,5.51-.12.15-.4.16-1,.35a16,16,0,0,1,.78-2.3c.59-1.1,1.34-2.12,1.94-3.22a1.83,1.83,0,0,0,.13-1.28,3,3,0,0,1,.85-3.53,31.57,31.57,0,0,0,2.51-2.88Zm-.77,1.08-.2-.11a17.4,17.4,0,0,1-1.88,2.28,1.61,1.61,0,0,0-.38,2.31c.76,1.25.32,2.33-.38,3.38-.47.71-1,1.4-1.45,2.1a11.21,11.21,0,0,0,2.59-2.55c.47-.65,1.39-1.2.86-2.27-.79-1.59-.31-3,.56-4.42A3.47,3.47,0,0,0,32.39,62.25Z" style="fill:#fff"/><path d="M74.69,80.45c0-2.29,0-4.28,0-6.26a1,1,0,0,1,.56-.75c2.47-.66,4.94-1.37,7.45-1.83.64-.11,1.44.6,2.17.93-.37.67-.57,1.56-1.12,2-2.36,1.74-4.81,3.35-7.24,5C76,79.84,75.44,80.06,74.69,80.45Z"/><path d="M44.55,79.77a26.61,26.61,0,0,1-1.31,4.13,3.51,3.51,0,0,1-4.37,1.79A5.13,5.13,0,0,1,35.49,78a21.26,21.26,0,0,1,3.09-4.11c1.94-2,4.41-1.39,5.19,1.29A44.91,44.91,0,0,1,44.55,79.77Z"/><path d="M47.35,48.08c-.13.35-.21.6-.31.85-.31.81-.53,2.25-1,2.32a6.22,6.22,0,0,1-4.16-.19c-3-1.58-6.12-3-9.13-4.6a1.61,1.61,0,0,1-.58-1.39,6.69,6.69,0,0,1,1-2.17,1.14,1.14,0,0,1,1-.37c4.22,1.68,8.41,3.41,12.6,5.14A2.92,2.92,0,0,1,47.35,48.08Z"/><path d="M47.9,37l-8.79-3.8c.4-1,.76-2,1.18-3,.82-1.87,1.65-2.06,3.55-1.19,1.49.67,3.09,1.09,4.6,1.73a1.77,1.77,0,0,1,1,1.1C49.71,33.5,49.22,35,47.9,37Z"/><path d="M39,36.12l7,3.05L44.5,43c-1.8-.68-3.5-1.34-5.21-2-1.26-.45-1.38-1.45-1.17-2.51A19.89,19.89,0,0,1,39,36.12Z"/><path d="M47.39,44.88c-.18,1.84-.62,2-2.31,1.35-3.1-1.25-6.23-2.41-9.35-3.6-.63-.24-1.2-.47-.82-1.35.27-.64.39-1.31,1.4-.82s2.09.78,3.13,1.19C42.06,42.7,44.67,43.77,47.39,44.88Z"/><path d="M31.22,55.45a20.85,20.85,0,0,0,7.34,4.62,1.64,1.64,0,0,1,1.15,2.28c-.43,1.33-1.5,1.67-2.79,1.08-.32-.14-.63-.3-1.05-.51a4.68,4.68,0,0,0,1.74-.17c.39-.22.56-.84.82-1.27l-7.64-3.14c.19-1.13.33-2,.47-2.86Z"/><path d="M37.54,35c2.64-1.21,4.85.22,7.11,1.08A20.52,20.52,0,0,1,48.36,38c.5.32.71,1.07,1.16,1.79Z"/><path d="M37.44,40.17a30,30,0,0,1-3-.92c-1-.44-.89-1.43-.58-2.21a8.81,8.81,0,0,1,1.28-1.88c.42.07.82.13,1.21.22,1.44.32,1.88,1.1,1.49,2.55C37.69,38.56,37.61,39.21,37.44,40.17Z"/><path d="M46.21,39.36l4.07,2.15L49.3,44c-1.44.36-3.13.18-3.71-.91C45.13,42.22,45.94,40.69,46.21,39.36Z"/><path d="M51.49,24.93c-.47,1.12-1.31,1.61-3,1.09a46.73,46.73,0,0,1-4.87-2l.83-1.38Z"/><path d="M43.73,24.41C46,25.74,48.31,27,51,26.33c0,1.45-.75,1.94-1.94,1.66a30.32,30.32,0,0,1-4.84-1.32C43,26.13,43.06,25.89,43.73,24.41Z"/><path d="M42.82,26.9,50,28.71l-.59,1.66a11.66,11.66,0,0,1-6-2.06C42.63,27.81,42.44,27.33,42.82,26.9Z"/><path d="M45.62,20.2c1.85,2.1,4.25,2.23,6.73,2.11-.52,1.76-1,2.06-3,1.58a15.14,15.14,0,0,1-3.33-1.33C44.54,21.76,44.57,21.7,45.62,20.2Z"/><path d="M52.65,21.16c-.67,1.1-3.66,1.05-5.58-.26-.78-.53-1.77-1.18-.72-2.17Z"/><path d="M49.8,14.58c0-1.64.54-2.29,1.86-2.33.87,0,1.38.32,1.36,1.26s-1.23,2.92-1.89,2.83C50.08,16.18,49.51,15.6,49.8,14.58Z"/><path d="M42.41,54.06l-.63,1.39L32.61,51l.19-.46Z"/><path d="M43.38,52.7C36,50.24,33.52,48.92,33,47.13l10.55,5.26Z"/><path d="M40.21,59.3v1.38l-7.69-4.6c-.41-.24-.86-.42-1.29-.63l0,0c0-.34.08-.68.09-.81l8.9,4.66Z"/><path d="M32.67,49.22c.41,0,.95-.29,1.22-.12a31.55,31.55,0,0,0,8.71,3.74c.29.09.49.5.74.76l-.25.28-10.45-4Z"/><path d="M32.29,51.41l9.24,4.64c-.33,1.23-1.22.71-1.91.31-1.69-1-3.32-2-5-3l-2.59-1.57Z"/><path d="M40.25,59.33c-.23-.29-.4-.69-.69-.85-2-1-4-2-6-3a3.5,3.5,0,0,1-1.93-2.09A28.86,28.86,0,0,0,41,57.85l-.76,1.45Z"/><path d="M48.45,15.47c1.14.58,2.29,1.12,3.39,1.75a.94.94,0,0,1,.25.86c-.26.3-.82.71-1,.61-1-.48-2-1.11-2.94-1.68.13-.57.25-1.07.38-1.57Z"/><path d="M46.93,17.91c1.15-.31,4.87,1.27,5.63,2.32A7.28,7.28,0,0,1,46.93,17.91Z"/><path d="M38.06,56.37l-6.25-3.49.29-.51,6.13,3.71Z"/><path d="M34.38,61.92a2.57,2.57,0,0,1,3.4-.23c-.35.93-1,1-1.88.72l-1.51-.5Z"/><path d="M67.85,58.74c-1.11-2.15-2.08-4.11-3.14-6A1.42,1.42,0,0,1,65,50.58c2-1.89,3.77-4,5.64-6L70.1,44c1.52.11,2.4-.81,2.11-1.68a8,8,0,0,0,1.29-.83c1.32-1.26,2.6-2.57,4.1-3.8-.33,4,1.5,7.33,3.06,10.69,1.45,3.12,3,6.23,4.62,9.23a28.19,28.19,0,0,0,3.28,3.91L78,60.12C74.48,59.66,71,59.17,67.85,58.74Zm-.56-8.58c.17.72.3,1.24.42,1.76.61,2.68,1.73,3.6,4.43,3.58,2.43,0,4.87,0,7.3-.08h1.74c-.38-1-.7-1.83-1.07-2.68-1.14-2.64-2.28-5.28-3.46-7.91-.1-.23-.46-.57-.6-.53a6.11,6.11,0,0,0-1.92.78C71.83,46.73,69.58,48.45,67.29,50.16Z"/><path d="M32.39,62.25a3.47,3.47,0,0,1-.28.72c-.87,1.39-1.35,2.83-.56,4.42.53,1.07-.39,1.62-.86,2.27a11.21,11.21,0,0,1-2.59,2.55c.49-.7,1-1.39,1.45-2.1.7-1,1.14-2.13.38-3.38a1.61,1.61,0,0,1,.38-2.31,17.4,17.4,0,0,0,1.88-2.28Z"/><path d="M67.29,50.16c2.29-1.71,4.54-3.43,6.84-5.08a6.11,6.11,0,0,1,1.92-.78c.14,0,.5.3.6.53,1.18,2.63,2.32,5.27,3.46,7.91.37.85.69,1.72,1.07,2.68H79.44c-2.43,0-4.87.07-7.3.08-2.7,0-3.82-.9-4.43-3.58C67.59,51.4,67.46,50.88,67.29,50.16Zm12.29,4.33c-1.25-2.89-2.48-5.77-3.87-9l-.53.9c-.89-.86-1.26.24-1.69.57-1.35,1-2.48,2.35-3.89,3.28-1,.64-1.2,1.23-.73,2.16s.66,2.17,2.24,2,2.93,0,4.39,0Z" style="fill:#fff"/><path d="M79.58,54.49H75.5c-1.46,0-2.93-.15-4.39,0s-1.76-1.1-2.24-2-.23-1.52.73-2.16C71,49.32,72.14,48,73.49,47c.43-.33.8-1.43,1.69-.57l.53-.9C77.1,48.72,78.33,51.6,79.58,54.49Z"/></g></g></svg>